<svg width="24" height="25" viewBox="0 0 24 25" fill="none" xmlns="http://www.w3.org/2000/svg">
<path d="M16.19 2.19394H7.81C4.17 2.19394 2 4.36394 2 8.00394V16.3739C2 20.0239 4.17 22.1939 7.81 22.1939H16.18C19.82 22.1939 21.99 20.0239 21.99 16.3839V8.00394C22 4.36394 19.83 2.19394 16.19 2.19394ZM14.79 12.7239L11.26 16.2539C11.11 16.4039 10.92 16.4739 10.73 16.4739C10.54 16.4739 10.35 16.4039 10.2 16.2539C9.91 15.9639 9.91 15.4839 10.2 15.1939L13.2 12.1939L10.2 9.19394C9.91 8.90394 9.91 8.42394 10.2 8.13394C10.49 7.84394 10.97 7.84394 11.26 8.13394L14.79 11.6639C15.09 11.9539 15.09 12.4339 14.79 12.7239Z" fill="#1555C3"/>
</svg>
