<svg width="58" height="58" viewBox="0 0 58 58" fill="none" xmlns="http://www.w3.org/2000/svg">
<rect width="58" height="58" rx="5" fill="#EBF2FF"/>
<path d="M24.2498 44.8334H33.7498C41.6665 44.8334 44.8332 41.6667 44.8332 33.7501V24.2501C44.8332 16.3334 41.6665 13.1667 33.7498 13.1667H24.2498C16.3332 13.1667 13.1665 16.3334 13.1665 24.2501V33.7501C13.1665 41.6667 16.3332 44.8334 24.2498 44.8334Z" stroke="#1555C3" stroke-width="1.5" stroke-linecap="round" stroke-linejoin="round"/>
<path d="M36.9168 13.8634V29.6651C36.9168 32.7842 34.6843 34.0034 31.9452 32.3567L29.8552 31.1059C29.3802 30.8209 28.6202 30.8209 28.1452 31.1059L26.0552 32.3567C23.316 33.9876 21.0835 32.7842 21.0835 29.6651V13.8634" stroke="#1555C3" stroke-width="1.5" stroke-linecap="round" stroke-linejoin="round"/>
<path d="M24.2498 44.8334H33.7498C41.6665 44.8334 44.8332 41.6667 44.8332 33.7501V24.2501C44.8332 16.3334 41.6665 13.1667 33.7498 13.1667H24.2498C16.3332 13.1667 13.1665 16.3334 13.1665 24.2501V33.7501C13.1665 41.6667 16.3332 44.8334 24.2498 44.8334Z" stroke="#1555C3" stroke-width="2.5" stroke-linecap="round" stroke-linejoin="round"/>
<path d="M36.9168 13.8634V29.6651C36.9168 32.7842 34.6843 34.0034 31.9452 32.3567L29.8552 31.1059C29.3802 30.8209 28.6202 30.8209 28.1452 31.1059L26.0552 32.3567C23.316 33.9876 21.0835 32.7842 21.0835 29.6651V13.8634" stroke="#1555C3" stroke-width="2.5" stroke-linecap="round" stroke-linejoin="round"/>
</svg>
