<svg width="59" height="58" viewBox="0 0 59 58" fill="none" xmlns="http://www.w3.org/2000/svg">
<rect x="0.333252" width="58" height="58" rx="5" fill="#EBF2FF"/>
<path d="M21.8283 13.1666H36.8224C37.8516 13.1666 38.7699 13.1983 39.5933 13.3092C43.9791 13.8 45.1666 15.8583 45.1666 21.495V31.5017C45.1666 37.1383 43.9791 39.1966 39.5933 39.6875C38.7699 39.7983 37.8674 39.83 36.8224 39.83H21.8283C20.7991 39.83 19.8808 39.7983 19.0574 39.6875C14.6716 39.1966 13.4841 37.1383 13.4841 31.5017V21.495C13.4841 15.8583 14.6716 13.8 19.0574 13.3092C19.8808 13.1983 20.7991 13.1666 21.8283 13.1666Z" stroke="#1555C3" stroke-width="2.5" stroke-linecap="round" stroke-linejoin="round"/>
<path d="M31.835 23.1733H37.6616" stroke="#1555C3" stroke-width="2.5" stroke-linecap="round" stroke-linejoin="round"/>
<path d="M21.0049 32.3408H21.0365H37.6774" stroke="#1555C3" stroke-width="2.5" stroke-linecap="round" stroke-linejoin="round"/>
<path d="M21.4165 44.8334H37.2498" stroke="#1555C3" stroke-width="2.5" stroke-linecap="round" stroke-linejoin="round"/>
<path d="M21.7249 23.1416H21.7391" stroke="#1555C3" stroke-width="2.5" stroke-linecap="round" stroke-linejoin="round"/>
<path d="M26.9495 23.1416H26.9637" stroke="#1555C3" stroke-width="2.5" stroke-linecap="round" stroke-linejoin="round"/>
</svg>
