<svg width="59" height="58" viewBox="0 0 59 58" fill="none" xmlns="http://www.w3.org/2000/svg">
<rect x="0.666748" width="58" height="58" rx="5" fill="#EBF2FF"/>
<path d="M44.9616 26.5301L43.41 33.1484C42.08 38.8642 39.4516 41.1759 34.5116 40.7009C33.72 40.6376 32.865 40.4951 31.9466 40.2734L29.2866 39.6401C22.6841 38.0726 20.6416 34.8109 22.1933 28.1926L23.745 21.5584C24.0616 20.2126 24.4416 19.0409 24.9166 18.0751C26.7691 14.2434 29.92 13.2142 35.2083 14.4651L37.8525 15.0826C44.4866 16.6342 46.5133 19.9117 44.9616 26.5301Z" stroke="#1555C3" stroke-width="2.5" stroke-linecap="round" stroke-linejoin="round"/>
<path d="M34.5118 40.7008C33.5301 41.3658 32.2951 41.92 30.791 42.4108L28.2893 43.2341C22.0035 45.2608 18.6943 43.5666 16.6518 37.2808L14.6251 31.0266C12.5985 24.7408 14.2768 21.4158 20.5626 19.3891L23.0643 18.5658C23.7135 18.36 24.331 18.1858 24.9168 18.075C24.4418 19.0408 24.0618 20.2125 23.7451 21.5583L22.1935 28.1925C20.6418 34.8108 22.6843 38.0724 29.2868 39.64L31.9468 40.2733C32.8651 40.495 33.7201 40.6375 34.5118 40.7008Z" stroke="#1555C3" stroke-width="2.5" stroke-linecap="round" stroke-linejoin="round"/>
<path d="M30.6802 23.5059L38.3593 25.4534" stroke="#1555C3" stroke-width="2.5" stroke-linecap="round" stroke-linejoin="round"/>
<path d="M29.1284 29.6333L33.7201 30.805" stroke="#1555C3" stroke-width="2.5" stroke-linecap="round" stroke-linejoin="round"/>
</svg>
