<svg width="58" height="58" viewBox="0 0 58 58" fill="none" xmlns="http://www.w3.org/2000/svg">
<rect width="58" height="58" rx="5" fill="#EBF2FF"/>
<path d="M38.5 21.3366C38.405 21.3208 38.2941 21.3208 38.1991 21.3366C36.0141 21.2575 34.2725 19.4683 34.2725 17.2516C34.2725 14.9875 36.0933 13.1666 38.3575 13.1666C40.6216 13.1666 42.4425 15.0033 42.4425 17.2516C42.4266 19.4683 40.685 21.2575 38.5 21.3366Z" stroke="#1555C3" stroke-width="2.5" stroke-linecap="round" stroke-linejoin="round"/>
<path d="M36.869 32.8633C39.0382 33.2275 41.429 32.8475 43.1074 31.7233C45.3399 30.235 45.3399 27.7966 43.1074 26.3083C41.4132 25.1841 38.9907 24.8041 36.8215 25.1841" stroke="#1555C3" stroke-width="2.5" stroke-linecap="round" stroke-linejoin="round"/>
<path d="M19.4525 21.3366C19.5475 21.3208 19.6583 21.3208 19.7533 21.3366C21.9383 21.2575 23.68 19.4683 23.68 17.2516C23.68 14.9875 21.8592 13.1666 19.595 13.1666C17.3308 13.1666 15.51 15.0033 15.51 17.2516C15.5258 19.4683 17.2675 21.2575 19.4525 21.3366Z" stroke="#1555C3" stroke-width="2.5" stroke-linecap="round" stroke-linejoin="round"/>
<path d="M21.0834 32.8633C18.9142 33.2275 16.5234 32.8475 14.845 31.7233C12.6125 30.235 12.6125 27.7966 14.845 26.3083C16.5392 25.1841 18.9617 24.8041 21.1309 25.1841" stroke="#1555C3" stroke-width="2.5" stroke-linecap="round" stroke-linejoin="round"/>
<path d="M29 33.1641C28.905 33.1483 28.7941 33.1483 28.6991 33.1641C26.5141 33.085 24.7725 31.2958 24.7725 29.0791C24.7725 26.815 26.5933 24.9941 28.8575 24.9941C31.1216 24.9941 32.9425 26.8308 32.9425 29.0791C32.9266 31.2958 31.185 33.1008 29 33.1641Z" stroke="#1555C3" stroke-width="2.5" stroke-linecap="round" stroke-linejoin="round"/>
<path d="M24.3924 38.1517C22.1599 39.64 22.1599 42.0784 24.3924 43.5667C26.9257 45.2609 31.0741 45.2609 33.6074 43.5667C35.8399 42.0784 35.8399 39.64 33.6074 38.1517C31.0899 36.4734 26.9257 36.4734 24.3924 38.1517Z" stroke="#1555C3" stroke-width="2.5" stroke-linecap="round" stroke-linejoin="round"/>
</svg>
